<?xml version="1.0" encoding="UTF-8"?>
<svg xmlns="http://www.w3.org/2000/svg" viewBox="0 0 700 800">
  <defs>
    <style>
      .cls-1, .cls-2 {
        fill: #fff;
      }

      .cls-2 {
        fill-rule: evenodd;
      }

      .cls-3 {
        fill: #2b2d42;
      }

      .cls-4 {
        fill: #d80032;
      }
    </style>
  </defs>
  <g id="Background">
    <rect class="cls-3" y="-.2" width="700" height="800.2"/>
  </g>
  <g id="Desktop-Banner">
    <g>
      <path class="cls-1" d="m372.9,577.49c-15.94,0-24.09,7.85-24.09,17.83,0,18.05,20.88,15.62,20.88,24.9,0,1.57-1.2,5.3-9.96,5.3s-14.46-3.37-14.46-3.37l-2.73,12.21s5.68,3.21,16.54,3.21,25.86-8.31,25.86-20.4c0-14.54-20.88-15.68-20.88-22.17,0-3.31,2.57-5.78,10.12-5.78,4.9,0,10.44,3.69,10.44,3.69l2.57-12.53s-7.29-2.89-14.3-2.89Zm-67.94,1.12l-13.81,40.8s-.94-3.47-1.28-5.62c-7.89-17.71-20.72-24.25-20.72-24.25l12.21,46.26h16.7l23.13-57.18h-16.22Zm22.17,0l-8.99,57.18h15.26l9.16-57.18h-15.42Zm82.4,0l-24.9,57.18h15.1l3.05-8.19h18.95l1.61,8.19h13.81l-11.73-57.18h-15.9Zm-157.09.16s29.84,9.24,36.78,31.64l-5.14-26.02s-2.21-5.62-8.19-5.62h-23.45Zm162.87,16.38l4.18,21.52h-12.53l8.35-21.52Z"/>
      <path class="cls-1" d="m330.72,752.39v-12.54c0-4.72-3.01-7.9-7.86-7.94-2.55-.04-5.18.75-7.02,3.55-1.38-2.21-3.55-3.55-6.6-3.55-2.13,0-4.22.63-5.85,2.97v-2.47h-4.35v19.98h4.39v-11.07c0-3.47,1.92-5.31,4.89-5.31s4.35,1.88,4.35,5.27v11.12h4.39v-11.07c0-3.47,2.01-5.31,4.89-5.31s4.39,1.88,4.39,5.27v11.12h4.39Zm64.94-19.98h-7.1v-6.06h-4.39v6.06h-4.05v3.97h4.05v9.11c0,4.64,1.8,7.4,6.94,7.4,1.88,0,4.05-.59,5.43-1.55l-1.25-3.72c-1.3.75-2.72,1.13-3.84,1.13-2.17,0-2.88-1.34-2.88-3.34v-9.03h7.1v-3.97Zm37.07-.5c-2.51,0-4.14,1.17-5.27,2.93v-2.42h-4.3v19.98h4.35v-11.2c0-3.3,1.42-5.14,4.26-5.14.88,0,1.8.13,2.72.5l1.34-4.1c-.96-.38-2.22-.54-3.09-.54h0Zm-56.04,2.09c-2.09-1.38-4.97-2.09-8.15-2.09-5.06,0-8.32,2.42-8.32,6.39,0,3.26,2.42,5.27,6.89,5.89l2.05.29c2.38.33,3.51.96,3.51,2.09,0,1.55-1.59,2.42-4.55,2.42s-5.18-.96-6.64-2.09l-2.05,3.38c2.38,1.76,5.39,2.59,8.65,2.59,5.77,0,9.11-2.72,9.11-6.52,0-3.51-2.63-5.35-6.98-5.98l-2.05-.29c-1.88-.25-3.38-.63-3.38-1.96,0-1.46,1.42-2.34,3.8-2.34,2.55,0,5.01.96,6.23,1.71l1.88-3.51Zm116.42-2.09c-2.51,0-4.14,1.17-5.27,2.93v-2.42h-4.3v19.98h4.35v-11.2c0-3.3,1.42-5.14,4.26-5.14.88,0,1.8.13,2.72.5l1.34-4.1c-.96-.38-2.21-.54-3.09-.54h0Zm-56,10.49c0,6.06,4.22,10.49,10.66,10.49,3.01,0,5.01-.67,7.19-2.38l-2.09-3.51c-1.63,1.17-3.34,1.8-5.22,1.8-3.47-.04-6.02-2.55-6.02-6.39s2.55-6.35,6.02-6.39c1.88,0,3.59.63,5.22,1.8l2.09-3.51c-2.17-1.71-4.18-2.38-7.19-2.38-6.44,0-10.66,4.43-10.66,10.49h0Zm40.7,0v-9.99h-4.35v2.42c-1.38-1.8-3.47-2.93-6.31-2.93-5.6,0-9.99,4.39-9.99,10.49s4.39,10.49,9.99,10.49c2.84,0,4.93-1.13,6.31-2.93v2.42h4.35v-9.99Zm-16.17,0c0-3.51,2.3-6.39,6.06-6.39s6.02,2.76,6.02,6.39-2.42,6.39-6.02,6.39-6.06-2.88-6.06-6.39h0Zm-52.44-10.49c-5.85,0-9.95,4.26-9.95,10.49s4.26,10.49,10.24,10.49c3.01,0,5.77-.75,8.19-2.8l-2.13-3.22c-1.67,1.34-3.8,2.09-5.81,2.09-2.8,0-5.35-1.3-5.98-4.89h14.84c.04-.54.08-1.09.08-1.67-.04-6.23-3.89-10.49-9.49-10.49h0Zm-.08,3.89c2.8,0,4.6,1.75,5.06,4.85h-10.36c.46-2.88,2.21-4.85,5.31-4.85h0Zm109.03,6.6v-18.01h-4.35v10.45c-1.38-1.8-3.47-2.93-6.31-2.93-5.6,0-9.99,4.39-9.99,10.49s4.39,10.49,9.99,10.49c2.84,0,4.93-1.13,6.31-2.93v2.42h4.35v-9.99Zm-16.17,0c0-3.51,2.3-6.39,6.06-6.39s6.02,2.76,6.02,6.39-2.42,6.39-6.02,6.39-6.06-2.88-6.06-6.39h0Zm-146.76,0v-9.99h-4.35v2.42c-1.38-1.8-3.47-2.93-6.31-2.93-5.6,0-9.99,4.39-9.99,10.49s4.39,10.49,9.99,10.49c2.84,0,4.93-1.13,6.31-2.93v2.42h4.35v-9.99Zm-16.17,0c0-3.51,2.3-6.39,6.06-6.39s6.02,2.76,6.02,6.39-2.42,6.39-6.02,6.39-6.06-2.88-6.06-6.39Zm-111.25,24.28c.23.2.48.4.73.6-4.76,3.17-10.48,5.02-16.63,5.02-16.59,0-30.04-13.45-30.04-30.04s13.45-30.04,30.04-30.04c6.15,0,11.87,1.85,16.63,5.02-.24.2-.49.4-.73.6-7.08,6.16-11.13,15.06-11.13,24.42s4.06,18.26,11.13,24.41Zm21.22-54.45c-6.15,0-11.87,1.85-16.63,5.02.24.2.49.4.73.6,7.08,6.16,11.13,15.06,11.13,24.41s-4.06,18.26-11.13,24.41c-.23.2-.48.4-.73.6,4.76,3.17,10.48,5.02,16.63,5.02,16.59,0,30.04-13.45,30.04-30.04s-13.45-30.04-30.04-30.04Zm-18.56,6.43c-.39.3-.77.62-1.14.94-6.33,5.51-10.34,13.61-10.34,22.66s4.01,17.16,10.34,22.66c.37.32.75.64,1.14.94.39-.3.77-.62,1.14-.94,6.33-5.51,10.34-13.61,10.34-22.66s-4.01-17.16-10.34-22.66c-.37-.32-.75-.64-1.14-.94"/>
      <g id="Capa_1">
        <path class="cls-2" d="m374.02,486.07l-10-5.25c-1.25-.75-2.75-.25-3.75.75-.5.75-1.25,1.25-1.5,1.75-3,3-6.5,4.5-10.75,4.5-8.5,0-13.25-6.5-13.25-13.25,0-8.5,7.75-16.5,16.75-16.5,4.5,0,8,2,10.5,5,.75,1,2.25,1.25,3.5.75,3-1.75,11.25-5.75,11.5-6,.25-.25.25-.5.25-.75-.25,0-.25-.5-.25-.5-4.5-8-13.25-13.75-24-13.75-18.75,0-34.25,16-34.25,33.75,0,14.75,11.5,26.25,27,26.25,11.5,0,22-6.25,28.25-15.5,0-.25.25-.5.5-.75,0-.25,0-.5-.5-.5h0Zm54.25-41.75c0-1-.75-1.5-1.75-1.5h-20c-1,0-2,.5-2.5,1.5l-30,56c-.25.25,0,.75.5.75h14c1,0,2-.5,2.5-1.5l22.75-42.75h.75s2.5,21,2.5,21c0,.25-.25.5-.5.5h-8c-2.25,0-3.25,2.75-1.5,4.25l9,8c1.75,1.5,3,3.75,3.25,6.25l.25,2.75c0,1,.75,1.5,1.75,1.5h14c.25,0,.5-.25.5-.5l-7.5-56.25h0Zm-129.25,28.5c-1,8.25-7.75,15-16,15s-14.25-6.75-13.25-15c1-8.25,8.5-15,16.75-15s13.5,6.75,12.5,15Zm-10.75-30c-17,0-32.25,13.5-34.25,30-2,16.5,10,30,27,30s32.25-13.5,34.25-30c2-16.5-10-30-27-30h0Z"/>
      </g>
    </g>
    <g>
      <g>
        <path class="cls-1" d="m60.91,40.53h16.27c5.49,0,9.61,1.47,12.36,4.42,2.75,2.95,4.12,7.27,4.12,12.96v6.93c0,5.69-1.37,10.01-4.12,12.96-2.75,2.95-6.87,4.42-12.36,4.42h-5.22v28.63h-11.05V40.53Zm16.27,31.64c1.81,0,3.16-.5,4.07-1.51.9-1,1.36-2.71,1.36-5.12v-8.34c0-2.41-.45-4.12-1.36-5.12-.9-1-2.26-1.51-4.07-1.51h-5.22v21.6h5.22Z"/>
        <path class="cls-1" d="m104.71,40.53h14.97l11.45,70.32h-11.05l-2.01-13.96v.2h-12.56l-2.01,13.76h-10.25l11.45-70.32Zm12.05,47.01l-4.92-34.76h-.2l-4.82,34.76h9.94Z"/>
        <path class="cls-1" d="m141.97,80.91l-13.36-40.38h11.75l7.53,25.82h.2l7.53-25.82h10.75l-13.36,40.38v29.94h-11.05v-29.94Z"/>
        <path class="cls-1" d="m171.41,40.53h15.77l7.03,50.33h.2l7.03-50.33h15.77v70.32h-10.45v-53.24h-.2l-8.04,53.24h-9.24l-8.04-53.24h-.2v53.24h-9.64V40.53Z"/>
        <path class="cls-1" d="m225.45,40.53h30.14v10.04h-19.09v18.58h15.17v10.04h-15.17v21.6h19.09v10.05h-30.14V40.53Z"/>
        <path class="cls-1" d="m261.92,40.53h13.86l10.75,42.09h.2v-42.09h9.84v70.32h-11.35l-13.26-51.33h-.2v51.33h-9.84V40.53Z"/>
        <path class="cls-1" d="m313.45,50.57h-11.55v-10.04h34.15v10.04h-11.55v60.27h-11.05v-60.27Z"/>
        <path class="cls-1" d="m357.45,40.53h15.77l7.03,50.33h.2l7.03-50.33h15.77v70.32h-10.45v-53.24h-.2l-8.04,53.24h-9.24l-8.04-53.24h-.2v53.24h-9.64V40.53Z"/>
        <path class="cls-1" d="m411.49,40.53h30.14v10.04h-19.09v18.58h15.17v10.04h-15.17v21.6h19.09v10.05h-30.14V40.53Z"/>
        <path class="cls-1" d="m456.59,50.57h-11.55v-10.04h34.15v10.04h-11.55v60.27h-11.05v-60.27Z"/>
        <path class="cls-1" d="m484.52,40.53h11.05v28.63h11.85v-28.63h11.05v70.32h-11.05v-31.64h-11.85v31.64h-11.05V40.53Z"/>
        <path class="cls-1" d="m530.23,107.23c-2.88-3.08-4.32-7.43-4.32-13.06v-36.97c0-5.63,1.44-9.98,4.32-13.06,2.88-3.08,7.03-4.62,12.46-4.62s9.58,1.54,12.46,4.62c2.88,3.08,4.32,7.43,4.32,13.06v36.97c0,5.63-1.44,9.98-4.32,13.06-2.88,3.08-7.03,4.62-12.46,4.62s-9.58-1.54-12.46-4.62Zm18.18-12.36v-38.37c0-4.62-1.91-6.93-5.73-6.93s-5.73,2.31-5.73,6.93v38.37c0,4.62,1.91,6.93,5.73,6.93s5.73-2.31,5.73-6.93Z"/>
        <path class="cls-1" d="m566.89,40.53h16.88c5.49,0,9.61,1.47,12.36,4.42,2.75,2.95,4.12,7.27,4.12,12.96v35.56c0,5.69-1.37,10.01-4.12,12.96-2.75,2.95-6.87,4.42-12.36,4.42h-16.88V40.53Zm16.68,60.27c1.81,0,3.2-.54,4.17-1.61.97-1.07,1.46-2.81,1.46-5.22v-36.57c0-2.41-.49-4.15-1.46-5.22-.97-1.07-2.36-1.61-4.17-1.61h-5.63v50.23h5.63Z"/>
        <path class="cls-1" d="m609.89,107.28c-2.75-3.05-4.12-7.42-4.12-13.11v-4.02h10.45v4.82c0,4.56,1.91,6.83,5.73,6.83,1.87,0,3.3-.55,4.27-1.66.97-1.11,1.46-2.9,1.46-5.38,0-2.95-.67-5.54-2.01-7.79-1.34-2.24-3.82-4.94-7.43-8.09-4.56-4.02-7.73-7.65-9.54-10.9-1.81-3.25-2.71-6.91-2.71-11,0-5.56,1.41-9.86,4.22-12.91,2.81-3.05,6.9-4.57,12.26-4.57s9.29,1.52,12,4.57c2.71,3.05,4.07,7.42,4.07,13.11v2.91h-10.45v-3.62c0-2.41-.47-4.17-1.41-5.27-.94-1.11-2.31-1.66-4.12-1.66-3.68,0-5.52,2.24-5.52,6.73,0,2.55.69,4.92,2.06,7.13,1.37,2.21,3.87,4.89,7.48,8.04,4.62,4.02,7.8,7.67,9.54,10.95,1.74,3.28,2.61,7.13,2.61,11.55,0,5.76-1.42,10.18-4.27,13.26-2.85,3.08-6.98,4.62-12.41,4.62s-9.41-1.52-12.16-4.57Z"/>
      </g>
      <g>
        <path class="cls-1" d="m246.21,152.3h9.75v62.05h-9.75v-62.05Z"/>
        <path class="cls-1" d="m263.23,152.3h12.23l9.48,37.14h.18v-37.14h8.69v62.05h-10.02l-11.7-45.29h-.18v45.29h-8.69v-62.05Z"/>
        <path class="cls-1" d="m308.7,161.16h-10.19v-8.86h30.14v8.86h-10.19v53.18h-9.75v-53.18Z"/>
        <path class="cls-1" d="m333.34,152.3h26.59v8.86h-16.84v16.4h13.38v8.86h-13.38v19.06h16.84v8.86h-26.59v-62.05Z"/>
        <path class="cls-1" d="m365.52,152.3h14.45c5.02,0,8.69,1.17,10.99,3.5,2.3,2.33,3.46,5.92,3.46,10.77v3.81c0,6.44-2.13,10.52-6.38,12.23v.18c2.36.71,4.03,2.16,5.01,4.34.98,2.19,1.46,5.11,1.46,8.78v10.9c0,1.77.06,3.21.18,4.3.12,1.09.41,2.17.89,3.24h-9.93c-.35-1-.59-1.95-.71-2.84-.12-.89-.18-2.48-.18-4.79v-11.35c0-2.84-.46-4.82-1.37-5.94-.92-1.12-2.5-1.68-4.74-1.68h-3.37v26.59h-9.75v-62.05Zm13.3,26.59c1.95,0,3.41-.5,4.39-1.51.97-1,1.46-2.69,1.46-5.05v-4.79c0-2.25-.4-3.87-1.2-4.88s-2.05-1.51-3.77-1.51h-4.43v17.73h3.55Z"/>
        <path class="cls-1" d="m401.24,152.3h26.59v8.86h-16.84v16.4h13.38v8.86h-13.38v19.06h16.84v8.86h-26.59v-62.05Z"/>
        <path class="cls-1" d="m435.54,211.2c-2.42-2.69-3.63-6.54-3.63-11.57v-3.54h9.22v4.25c0,4.02,1.68,6.03,5.05,6.03,1.65,0,2.91-.49,3.77-1.46.86-.98,1.29-2.56,1.29-4.74,0-2.6-.59-4.89-1.77-6.87-1.18-1.98-3.37-4.36-6.56-7.14-4.02-3.55-6.83-6.75-8.42-9.62-1.6-2.87-2.39-6.1-2.39-9.71,0-4.9,1.24-8.7,3.72-11.39,2.48-2.69,6.09-4.03,10.81-4.03s8.2,1.35,10.59,4.03c2.39,2.69,3.59,6.55,3.59,11.57v2.57h-9.22v-3.19c0-2.13-.41-3.68-1.24-4.65-.83-.97-2.04-1.46-3.63-1.46-3.25,0-4.88,1.98-4.88,5.94,0,2.25.6,4.34,1.82,6.29,1.21,1.95,3.41,4.31,6.6,7.09,4.08,3.55,6.88,6.77,8.42,9.66,1.54,2.9,2.3,6.29,2.3,10.19,0,5.08-1.26,8.98-3.77,11.7-2.51,2.72-6.16,4.08-10.95,4.08s-8.3-1.34-10.73-4.03Z"/>
        <path class="cls-1" d="m474.18,161.16h-10.19v-8.86h30.14v8.86h-10.19v53.18h-9.75v-53.18Z"/>
        <path class="cls-1" d="m490.94,178.89h19.5v8.86h-19.5v-8.86Z"/>
        <path class="cls-1" d="m516.29,152.3h25.79v8.86h-16.04v17.28h12.59v8.86h-12.59v27.03h-9.75v-62.05Z"/>
        <path class="cls-1" d="m546.78,152.3h14.45c5.02,0,8.69,1.17,10.99,3.5,2.3,2.33,3.46,5.92,3.46,10.77v3.81c0,6.44-2.13,10.52-6.38,12.23v.18c2.36.71,4.03,2.16,5.01,4.34.98,2.19,1.46,5.11,1.46,8.78v10.9c0,1.77.06,3.21.18,4.3.12,1.09.41,2.17.89,3.24h-9.93c-.35-1-.59-1.95-.71-2.84-.12-.89-.18-2.48-.18-4.79v-11.35c0-2.84-.46-4.82-1.37-5.94-.92-1.12-2.5-1.68-4.74-1.68h-3.37v26.59h-9.75v-62.05Zm13.3,26.59c1.95,0,3.41-.5,4.39-1.51.97-1,1.46-2.69,1.46-5.05v-4.79c0-2.25-.4-3.87-1.2-4.88s-2.05-1.51-3.77-1.51h-4.43v17.73h3.55Z"/>
        <path class="cls-1" d="m582.5,152.3h26.59v8.86h-16.84v16.4h13.38v8.86h-13.38v19.06h16.84v8.86h-26.59v-62.05Z"/>
        <path class="cls-1" d="m614.67,152.3h26.59v8.86h-16.84v16.4h13.38v8.86h-13.38v19.06h16.84v8.86h-26.59v-62.05Z"/>
        <path class="cls-1" d="m248.79,258.66h9.75v62.05h-9.75v-62.05Z"/>
        <path class="cls-1" d="m265.8,258.66h12.23l9.48,37.14h.18v-37.14h8.69v62.05h-10.02l-11.7-45.29h-.18v45.29h-8.69v-62.05Z"/>
        <path class="cls-1" d="m305.6,317.56c-2.42-2.69-3.63-6.54-3.63-11.57v-3.54h9.22v4.25c0,4.02,1.68,6.03,5.05,6.03,1.65,0,2.91-.49,3.77-1.46.86-.98,1.29-2.56,1.29-4.74,0-2.6-.59-4.89-1.77-6.87-1.18-1.98-3.37-4.36-6.56-7.14-4.02-3.55-6.83-6.75-8.42-9.62-1.6-2.87-2.39-6.1-2.39-9.71,0-4.9,1.24-8.7,3.72-11.39,2.48-2.69,6.09-4.03,10.81-4.03s8.2,1.35,10.59,4.03c2.39,2.69,3.59,6.55,3.59,11.57v2.57h-9.22v-3.19c0-2.13-.41-3.68-1.24-4.65-.83-.97-2.04-1.46-3.63-1.46-3.25,0-4.88,1.98-4.88,5.94,0,2.25.6,4.34,1.82,6.29,1.21,1.95,3.41,4.31,6.6,7.09,4.08,3.55,6.88,6.77,8.42,9.66,1.54,2.9,2.3,6.29,2.3,10.19,0,5.08-1.26,8.98-3.77,11.7-2.51,2.72-6.16,4.08-10.95,4.08s-8.3-1.34-10.73-4.03Z"/>
        <path class="cls-1" d="m344.24,267.53h-10.19v-8.86h30.14v8.86h-10.19v53.18h-9.75v-53.18Z"/>
        <path class="cls-1" d="m372.34,258.66h13.21l10.1,62.05h-9.75l-1.77-12.32v.18h-11.08l-1.77,12.14h-9.04l10.1-62.05Zm10.64,41.48l-4.34-30.67h-.18l-4.25,30.67h8.77Z"/>
        <path class="cls-1" d="m400.35,258.66h9.75v53.18h16.04v8.86h-25.79v-62.05Z"/>
        <path class="cls-1" d="m430.84,258.66h9.75v53.18h16.04v8.86h-25.79v-62.05Z"/>
        <path class="cls-1" d="m461.33,258.66h13.92l6.2,44.41h.18l6.2-44.41h13.92v62.05h-9.22v-46.98h-.18l-7.09,46.98h-8.15l-7.09-46.98h-.18v46.98h-8.51v-62.05Z"/>
        <path class="cls-1" d="m509.02,258.66h26.59v8.86h-16.84v16.4h13.38v8.86h-13.38v19.06h16.84v8.86h-26.59v-62.05Z"/>
        <path class="cls-1" d="m541.19,258.66h12.23l9.48,37.14h.18v-37.14h8.69v62.05h-10.02l-11.7-45.29h-.18v45.29h-8.69v-62.05Z"/>
        <path class="cls-1" d="m586.66,267.53h-10.19v-8.86h30.14v8.86h-10.19v53.18h-9.75v-53.18Z"/>
        <path class="cls-1" d="m613.25,317.56c-2.42-2.69-3.63-6.54-3.63-11.57v-3.54h9.22v4.25c0,4.02,1.68,6.03,5.05,6.03,1.65,0,2.91-.49,3.77-1.46.86-.98,1.29-2.56,1.29-4.74,0-2.6-.59-4.89-1.77-6.87-1.18-1.98-3.37-4.36-6.56-7.14-4.02-3.55-6.83-6.75-8.42-9.62-1.6-2.87-2.39-6.1-2.39-9.71,0-4.9,1.24-8.7,3.72-11.39,2.48-2.69,6.09-4.03,10.81-4.03s8.2,1.35,10.59,4.03c2.39,2.69,3.59,6.55,3.59,11.57v2.57h-9.22v-3.19c0-2.13-.41-3.68-1.24-4.65-.83-.97-2.04-1.46-3.63-1.46-3.25,0-4.88,1.98-4.88,5.94,0,2.25.6,4.34,1.82,6.29,1.21,1.95,3.41,4.31,6.6,7.09,4.08,3.55,6.88,6.77,8.42,9.66,1.54,2.9,2.3,6.29,2.3,10.19,0,5.08-1.26,8.98-3.77,11.7-2.51,2.72-6.16,4.08-10.95,4.08s-8.3-1.34-10.73-4.03Z"/>
      </g>
      <path class="cls-4" d="m80.52,212.88h-21.51v-25.99l35.18-8.94h25.51v115.86h-39.18v-80.93Z"/>
      <path class="cls-4" d="m164.99,213.05h-34.51c0-31.45,16.01-37.57,48.85-37.57,35.18,0,53.19,5.63,53.19,32.94,0,49.32-74.53,37.9-74.53,55.61h72.7v29.79h-102.54v-29.63c0-42.37,64.36-34.1,64.36-55.11,0-4.14-4.33-8.61-13.34-8.61-7.5,0-14.17,1.32-14.17,12.58Z"/>
      <rect class="cls-4" x="59.01" y="149.99" width="173.5" height="2.36"/>
      <rect class="cls-4" x="59.01" y="317.75" width="173.5" height="2.36"/>
    </g>
    <g>
      <path class="cls-4" d="m693.06,678.51c2.59,3.46,4.9,7.05,6.94,10.74,0,0,0-254.92,0-254.92-55.5,4.14-139.64,37.46-134.9,91.63,2.19,25.03,20.27,46.31,39.34,65.04,15.43,15.16,31.14,30.13,46.86,45.09,14.36,13.66,30.2,27.01,41.75,42.42Z"/>
      <path class="cls-4" d="m700,759.67c0,2.65-12.83,7.78-15.33,9.12-13.73,7.38-21.13,17.48-18.2,31.2h33.53v-40.33Z"/>
    </g>
    <path class="cls-4" d="m0,800h162.76c4.95-21.44-1.63-44.12-14.09-63.55-13.5-21.04-33.44-38.82-53.92-55.68-11.67-9.61-24.01-19.53-29.16-32.39-4.17-10.41-3.16-21.77-.11-32.43,7.86-27.42,28.34-51.05,45.37-75.53,12.53-18,24.43-37.67,25.91-58.69,2.8-39.94-26.09-75.19-54.7-99.68C60.64,363.73,29.75,353.49,0,347.23v452.77Z"/>
  </g>
</svg>